<?xml version="1.0" encoding="utf-8"?>
<!-- Generator: Adobe Illustrator 16.0.0, SVG Export Plug-In . SVG Version: 6.00 Build 0)  -->
<!DOCTYPE svg PUBLIC "-//W3C//DTD SVG 1.1//EN" "http://www.w3.org/Graphics/SVG/1.1/DTD/svg11.dtd">
<svg version="1.1" id="Calque_1" xmlns="http://www.w3.org/2000/svg" xmlns:xlink="http://www.w3.org/1999/xlink" x="0px" y="0px"
	 width="888px" height="1517px" viewBox="0 0 888 1517" enable-background="new 0 0 888 1517" xml:space="preserve">
<rect x="30" y="30" fill="none" width="888" height="1639"/>
<g enable-background="new    ">
	<path d="M134.14,40.032c-1.27-1.524-2.52-3.004-3.746-4.445c-1.229-1.438-2.477-2.962-3.746-4.572c0.422,0,0.781-0.02,1.079-0.063
		c0.296-0.042,0.613-0.063,0.952-0.063h34.29c1.354,0,2.413,0.552,3.175,1.651c2.54,4.064,5.101,8.086,7.684,12.065
		c2.582,3.981,5.101,8.001,7.557,12.065c0.931,1.524,1.734,3.133,2.413,4.826c0.677,1.695,1.48,3.473,2.413,5.334h-2.413h-40.259
		c-1.271,0-2.286-0.381-3.048-1.143c-5.674-5.334-12.49-8.636-20.447-9.906c-4.742-0.677-9.441-0.953-14.097-0.826
		c-4.657,0.127-9.271,0.996-13.844,2.604c-3.048,1.016-5.885,2.371-8.509,4.064c-2.625,1.695-5.038,3.769-7.238,6.223
		c-2.118,2.371-3.684,4.911-4.699,7.62c-1.017,2.71-1.505,5.419-1.461,8.128c0.042,2.71,0.635,5.397,1.778,8.064
		c1.143,2.667,2.813,5.144,5.017,7.429c2.708,2.879,5.757,5.102,9.144,6.667c3.386,1.568,6.985,2.774,10.795,3.62
		c5.588,1.187,11.069,1.651,16.447,1.397c5.375-0.254,10.731-1.397,16.065-3.429c4.655-1.861,8.636-4.445,11.938-7.747
		c0.846-0.762,0.846-1.607,0-2.54c-2.371-2.708-4.721-5.375-7.049-8.001c-2.329-2.624-4.721-5.249-7.175-7.874
		c-0.171-0.169-0.317-0.337-0.444-0.508c-0.127-0.169-0.276-0.381-0.445-0.635c0.423-0.083,0.973-0.127,1.651-0.127h44.196
		c0.677,0,1.29,0.085,1.841,0.254c0.55,0.171,1.036,0.593,1.461,1.27c1.692,2.203,3.407,4.381,5.144,6.541
		c1.734,2.159,3.449,4.34,5.144,6.541c0.677,0.762,0.845,1.651,0.508,2.667c-2.54,7.62-6.372,13.95-11.493,18.986
		c-5.124,5.038-11.325,9.081-18.605,12.129c-5.928,2.456-11.96,4.317-18.098,5.588c-6.14,1.27-12.383,2.159-18.732,2.667
		c-13.379,1.016-26.543,0.083-39.497-2.794c-5.588-1.187-11.008-2.794-16.256-4.826c-5.251-2.032-10.119-4.909-14.605-8.636
		c-7.791-6.519-13.251-13.843-16.383-21.971S29.07,81.096,31.524,71.02c1.439-6.265,4.042-11.684,7.811-16.256
		c3.767-4.572,8.318-8.509,13.652-11.811C64.586,35.926,77.244,31.82,90.96,30.634c4.064-0.337,8.106-0.528,12.129-0.572
		c4.02-0.042,8.064,0.53,12.128,1.715c2.963,0.847,5.82,1.905,8.572,3.175c2.751,1.27,5.481,2.71,8.192,4.318
		c0.508,0.339,0.931,0.593,1.27,0.762H134.14z"/>
	<path d="M246.281,116.866c2.877,0.763,5.715,1.546,8.509,2.35c2.794,0.806,5.671,1.632,8.636,2.477
		c-0.254,0.171-1.651,0.721-4.191,1.651c-2.539,0.933-5.524,2.075-8.953,3.429c-3.429,1.355-6.922,2.838-10.478,4.445
		s-6.521,3.175-8.89,4.699c-0.679,0.422-1.822,0.718-3.43,0.889c-1.608,0.169-2.752,0.127-3.429-0.127
		c-1.694-0.679-3.473-1.397-5.334-2.159c-1.863-0.762-3.769-1.609-5.715-2.54c1.016-3.048,1.883-5.715,2.604-8.001
		c0.719-2.286,1.29-4.19,1.715-5.715c0.508-1.778,0.931-3.302,1.27-4.572h27.687V116.866z"/>
	<path d="M335.941,59.462c8.466-2.455,16.7-3.131,24.701-2.032c8.002,1.101,15.854,3.641,23.559,7.62
		c4.064,2.032,7.535,4.508,10.414,7.429c2.878,2.921,5.122,6.096,6.731,9.525c1.607,3.429,2.582,7.112,2.921,11.049
		c0.337,3.937-0.044,7.938-1.143,12.001c-0.933,3.387-2.203,6.413-3.811,9.08c-1.609,2.667-3.515,5.061-5.715,7.176
		c-2.203,2.117-4.657,3.98-7.366,5.588c-2.711,1.609-5.588,3.048-8.636,4.318c-7.451,2.963-15.008,4.74-22.67,5.334
		c-7.663,0.591-15.389,0.464-23.177-0.381c-5.505-0.594-10.839-1.632-16.002-3.111c-5.166-1.48-10.033-3.83-14.605-7.049
		c-11.854-8.043-17.06-19.388-15.621-34.036c0.423-4.401,1.502-8.487,3.238-12.255c1.734-3.767,3.915-7.386,6.541-10.858
		c4.74-6.35,9.503-12.593,14.287-18.733c4.782-6.138,9.589-12.297,14.415-18.479c0.254-0.422,0.635-0.782,1.143-1.079
		c0.508-0.296,0.973-0.445,1.397-0.445c5.756-0.083,11.513-0.127,17.271-0.127c5.757,0,11.726,0,17.907,0
		c-4.657,5.08-9.208,9.991-13.652,14.732c-4.445,4.743-8.954,9.569-13.525,14.478c0.422,0.085,0.718,0.149,0.889,0.19
		C335.602,59.443,335.77,59.462,335.941,59.462z M322.225,82.831c-2.457,1.949-4.276,4.086-5.461,6.414
		c-1.187,2.33-1.778,4.699-1.778,7.112c0,2.413,0.571,4.806,1.715,7.176c1.143,2.371,2.899,4.53,5.271,6.477
		c2.963,2.456,6.413,4.276,10.351,5.461c3.937,1.187,7.979,1.778,12.128,1.778c4.147,0,8.17-0.636,12.065-1.905
		c3.894-1.271,7.322-3.132,10.287-5.588c2.286-1.861,3.979-3.957,5.08-6.286c1.099-2.328,1.65-4.677,1.65-7.049
		c0-2.369-0.593-4.699-1.777-6.985c-1.187-2.286-2.921-4.401-5.207-6.35c-3.219-2.708-6.712-4.613-10.478-5.715
		c-3.769-1.099-7.684-1.651-11.748-1.651c-4.063-0.083-7.959,0.444-11.684,1.587C328.912,78.449,325.442,80.291,322.225,82.831z"/>
	<path d="M544.475,86.006c1.185,4.572,1.607,9.061,1.27,13.462c-0.339,4.403-1.46,8.553-3.365,12.446
		c-1.905,3.895-4.572,7.388-8.001,10.478c-3.429,3.091-7.684,5.609-12.764,7.556c-4.657,1.778-9.779,3.176-15.367,4.191
		s-11.093,1.48-16.51,1.396c-5.673-0.17-11.283-0.678-16.827-1.523c-5.547-0.848-10.985-2.455-16.32-4.826
		c-5.588-2.454-10.267-5.715-14.033-9.779c-3.769-4.063-6.245-9.144-7.43-15.24c-0.933-4.655-1.185-9.1-0.762-13.335
		c0.423-4.232,1.544-8.169,3.365-11.811c1.82-3.639,4.318-6.878,7.493-9.715c3.175-2.836,7.049-5.227,11.621-7.176
		c6.096-2.623,12.339-4.381,18.732-5.27c6.392-0.889,12.891-1.122,19.494-0.699c4.572,0.17,9.101,0.679,13.589,1.524
		c4.487,0.847,8.891,2.159,13.208,3.937c5.672,2.372,10.478,5.505,14.415,9.398C540.22,74.915,542.95,79.91,544.475,86.006z
		 M512.725,109.12c1.946-2.115,3.365-4.381,4.254-6.794c0.89-2.413,0.994-5.1,0.317-8.064c-0.593-2.794-1.736-5.185-3.429-7.176
		c-1.694-1.988-3.727-3.703-6.096-5.144c-3.557-2.115-7.22-3.429-10.985-3.937c-3.769-0.508-7.684-0.549-11.748-0.127
		c-3.556,0.425-6.88,1.333-9.97,2.73c-3.091,1.397-5.863,3.451-8.318,6.16c-1.523,1.695-2.667,3.556-3.429,5.588
		c-0.762,2.032-1.016,4.235-0.762,6.604c0.423,3.556,1.65,6.499,3.683,8.827c2.032,2.33,4.572,4.255,7.62,5.778
		c2.54,1.271,5.207,2.159,8.001,2.667s5.63,0.806,8.509,0.89c1.1-0.084,2.179-0.147,3.238-0.191
		c1.059-0.041,2.096-0.146,3.112-0.317c3.048-0.422,5.925-1.226,8.636-2.413C508.068,113.015,510.522,111.322,512.725,109.12z"/>
	<path d="M693.572,91.975c1.438,14.648-3.769,25.993-15.621,34.036c-4.657,3.219-9.547,5.568-14.669,7.049
		c-5.123,1.479-10.436,2.518-15.938,3.111c-7.874,0.845-15.62,0.972-23.24,0.381c-7.62-0.594-15.157-2.371-22.606-5.334
		c-3.048-1.271-5.949-2.709-8.699-4.318c-2.753-1.607-5.229-3.471-7.43-5.588c-2.202-2.115-4.107-4.509-5.715-7.176
		c-1.609-2.667-2.838-5.693-3.684-9.08c-1.101-4.064-1.479-8.064-1.143-12.001s1.312-7.62,2.921-11.049
		c1.607-3.429,3.852-6.604,6.731-9.525c2.877-2.921,6.35-5.397,10.414-7.429c7.703-3.979,15.558-6.519,23.559-7.62
		c8.001-1.1,16.233-0.423,24.701,2.032c0.169,0,0.337-0.02,0.508-0.063c0.169-0.042,0.465-0.105,0.889-0.19
		c-4.571-4.909-9.08-9.735-13.525-14.478c-4.444-4.741-9.038-9.652-13.779-14.732c6.18,0,12.148,0,17.907,0
		c5.757,0,11.514,0.044,17.271,0.127c0.423,0,0.89,0.149,1.397,0.445c0.508,0.297,0.931,0.657,1.27,1.079
		c4.826,6.182,9.631,12.341,14.415,18.479c4.782,6.14,9.545,12.383,14.287,18.733c2.624,3.473,4.805,7.092,6.541,10.858
		C692.068,83.487,693.147,87.573,693.572,91.975z M656.995,110.009c2.369-1.947,4.147-4.106,5.334-6.477
		c1.185-2.37,1.778-4.763,1.778-7.176c0-2.413-0.615-4.782-1.842-7.112c-1.229-2.328-3.028-4.465-5.397-6.414
		c-3.219-2.54-6.689-4.381-10.414-5.524c-3.727-1.143-7.62-1.671-11.684-1.587c-4.064,0-8.001,0.552-11.812,1.651
		c-3.81,1.102-7.324,3.006-10.541,5.715c-2.286,1.949-4,4.064-5.144,6.35c-1.143,2.286-1.736,4.616-1.777,6.985
		c-0.044,2.372,0.508,4.721,1.65,7.049c1.144,2.33,2.857,4.425,5.144,6.286c2.878,2.457,6.287,4.318,10.224,5.588
		c3.938,1.27,7.957,1.905,12.065,1.905c4.105,0,8.128-0.592,12.064-1.778C650.582,114.285,654.031,112.465,656.995,110.009z"/>
	<path d="M826.667,59.208v45.212l-0.127,0.254c-0.085,4.997-0.127,9.207-0.127,12.637c0,3.429-0.127,6.35-0.381,8.763
		s-0.679,4.509-1.271,6.286c-0.593,1.778-1.523,3.557-2.794,5.334c-2.456,3.386-5.313,6.201-8.572,8.445
		c-3.261,2.243-6.838,4.084-10.731,5.525c-3.048,1.099-5.737,2.01-8.064,2.73c-2.33,0.718-4.53,1.27-6.604,1.65
		c-2.075,0.381-4.149,0.635-6.223,0.763c-2.075,0.127-4.34,0.19-6.795,0.19c-2.879,0-5.609-0.044-8.191-0.127
		c-2.583-0.086-5.482-0.552-8.699-1.397c-3.896-0.933-7.832-2.159-11.811-3.683c-3.981-1.524-7.601-3.473-10.859-5.843
		c-3.26-2.371-6.117-5.25-8.572-8.636c-1.609-2.794-2.71-5.715-3.302-8.763h6.35h5.334h5.207c0.254,0,1.058,0.021,2.413,0.063
		c1.354,0.044,2.814,0.063,4.382,0.063c1.565,0,3.026,0,4.382,0c1.353,0,2.158,0,2.413,0c1.099,0,1.946,0.381,2.539,1.143
		c0.338,0.509,0.55,0.806,0.636,0.89h0.127c0.337,0.425,0.718,0.825,1.143,1.206c0.423,0.381,0.846,0.782,1.271,1.207
		c1.607,1.353,3.258,2.454,4.953,3.302l0.127,0.127c0.337,0.169,0.635,0.296,0.889,0.381h0.127c0.083,0.083,0.296,0.21,0.635,0.381
		h-0.254c1.271,0.254,2.75,0.571,4.445,0.953c1.692,0.381,2.963,0.571,3.81,0.571c0.931,0,2.011,0.041,3.238,0.127
		c1.227,0.083,2.582,0,4.064-0.254c1.48-0.254,3.09-0.742,4.826-1.461c1.734-0.72,3.619-1.885,5.651-3.492
		c-0.508-0.34-0.933-0.679-1.271-1.017c-1.016-1.185-2.012-2.412-2.984-3.683c-0.974-1.27-1.968-2.496-2.984-3.683v-0.127
		c-0.593-0.592-1.187-1.354-1.777-2.286l-29.973-40.259c-0.254-0.254-0.656-0.782-1.206-1.587c-0.552-0.804-1.207-1.671-1.969-2.604
		c-0.762-0.931-1.546-1.925-2.35-2.984c-0.806-1.058-1.546-1.969-2.223-2.73V72.67c-1.355-1.438-2.71-2.921-4.063-4.445
		c-1.355-1.524-2.711-3.004-4.064-4.445c-0.679-0.677-1.333-1.375-1.969-2.096c-0.635-0.718-1.333-1.502-2.095-2.35h3.81v-0.127
		h30.988c1.438,1.778,2.646,3.451,3.619,5.017c0.973,1.568,2.138,3.239,3.493,5.017c0.168,0.254,0.889,1.187,2.158,2.794
		c1.271,1.609,2.646,3.387,4.128,5.334c1.48,1.949,2.857,3.727,4.127,5.334c1.271,1.609,1.989,2.54,2.159,2.794
		c1.607,2.286,3.344,4.699,5.207,7.239c1.861,2.54,3.767,5.124,5.715,7.747V59.208H826.667z"/>
</g>
<g enable-background="new    ">
	<path d="M447.92,185.599c-0.215,0.855-1.229,4.48-3.04,10.88c-1.814,6.4-3.95,14.24-6.399,23.52c-2.455,9.28-5.12,19.31-8,30.08
		c-2.881,10.775-5.601,20.855-8.16,30.24c-2.561,9.39-4.75,17.495-6.561,24.32c-1.814,6.83-2.83,10.88-3.04,12.16l-16.64,66.88
		c-2.35,9.39-5.6,19.47-9.76,30.24c-4.16,10.775-7.735,20.855-10.721,30.24c-0.43,1.921-1.71,2.881-3.84,2.881
		c-10.455,0.21-20.854,0.265-31.2,0.159c-10.35-0.109-20.75-0.159-31.199-0.159c-0.431,0-0.91-0.695-1.44-2.08
		c-0.535-1.391-0.59-2.83-0.16-4.32c1.705-4.905,4.105-12.16,7.2-21.76c3.09-9.6,6.45-20.05,10.08-31.36
		c3.625-11.305,7.25-22.825,10.88-34.56c3.625-11.73,6.93-22.29,9.92-31.68c-10.67,14.51-21.12,28.64-31.359,42.4
		c-10.24,13.76-19.521,26.24-27.841,37.44c-8.319,11.2-15.31,20.64-20.96,28.32c-5.654,7.68-9.335,12.585-11.04,14.72
		c-1.495,1.921-3.63,2.881-6.399,2.881h-63.36h-13.12c-0.43,0-0.91-0.695-1.439-2.08c-0.535-1.391-0.59-2.83-0.16-4.32
		c1.705-4.905,4.104-12.16,7.2-21.76c3.09-9.6,6.449-20.05,10.08-31.36c3.625-11.305,7.25-22.825,10.88-34.56
		c3.625-11.73,6.93-22.29,9.92-31.68c-10.67,14.51-21.12,28.64-31.36,42.4c-10.24,13.76-19.52,26.24-27.84,37.44
		s-15.31,20.64-20.96,28.32c-5.655,7.68-9.335,12.585-11.04,14.72c-1.495,1.921-3.63,2.881-6.4,2.881
		c-12.8,0.21-25.55,0.265-38.239,0.159c-12.695-0.109-25.44-0.159-38.24-0.159c-0.43,0-0.96,0-1.6,0s-1.495-0.11-2.56-0.32
		c0.85-1.07,4.32-5.49,10.4-13.28c6.08-7.785,13.76-17.705,23.041-29.76c9.279-12.05,19.68-25.65,31.199-40.8
		c11.521-15.145,23.306-30.61,35.36-46.4c12.05-15.785,23.89-31.305,35.52-46.56c11.625-15.25,22.08-28.905,31.36-40.96
		c9.28-12.05,16.905-22.025,22.88-29.92c5.971-7.89,9.385-12.37,10.24-13.44h78.08h2.56c-5.55,20.48-10.295,37.975-14.239,52.48
		c-3.95,14.51-7.2,26.56-9.761,36.16c-2.989,11.095-5.55,20.27-7.68,27.52c10.88-14.29,21.49-28.21,31.84-41.76
		c10.345-13.545,19.57-25.65,27.681-36.32c8.104-10.665,14.77-19.41,20-26.24c5.225-6.825,8.265-10.77,9.119-11.84h78.08H447.92z"/>
	<path d="M662.638,186.239c1.064,0,1.81,0.055,2.239,0.16c0.426,0.11,1.601,0.055,3.521-0.16l-5.12,7.68
		c-2.775,4.055-4.91,7.2-6.4,9.44c-1.495,2.24-2.72,4.11-3.68,5.6c-0.96,1.495-1.975,2.99-3.04,4.48
		c-1.07,1.495-2.455,3.52-4.16,6.08c-3.2,4.91-6.35,8.91-9.439,12c-3.096,3.095-7.415,4.75-12.96,4.96c-2.561,0-5.551,0-8.96,0
		c-3.415,0-6.881-0.05-10.4-0.16c-3.52-0.105-6.935-0.16-10.24-0.16c-3.31,0-6.24,0-8.8,0c-1.71,0.215-3.36,0.695-4.96,1.44
		c-1.6,0.75-2.83,1.76-3.68,3.04c-0.641,0.855-2.08,2.99-4.32,6.4c-2.24,3.415-4.855,7.415-7.84,12
		c-2.99,4.59-6.295,9.55-9.92,14.88c-3.63,5.335-7.04,10.455-10.24,15.36v1.6h49.28v37.12h-49.28v73.28c0,6.83,0.16,13.76,0.48,20.8
		c0.319,7.039,0.369,13.975,0.159,20.8c0,1.064-0.375,2.024-1.12,2.88c-0.75,0.85-1.654,1.28-2.72,1.28c-7.04,0-12.319,0-15.84,0
		c-3.52,0-6.72,0-9.6,0s-6.24,0-10.08,0s-9.601,0-17.28,0v-24.641v-36.48v-200.32h56v25.6l17.6-25.6
		c16.851,0.215,33.65,0.32,50.4,0.32C628.983,185.918,645.782,186.029,662.638,186.239z"/>
	<path d="M708.396,245.438c-7.255-1.92-14.4-3.89-21.44-5.92c-7.04-2.025-14.295-4.105-21.76-6.24c1.28-1.065,2.29-1.92,3.04-2.56
		c0.745-0.64,1.545-1.28,2.4-1.92c11.944-7.89,23.784-14.72,35.52-20.48c11.73-5.76,23.68-12.48,35.84-20.16
		c0.641-0.425,1.76-0.85,3.36-1.28c1.6-0.425,3.25-0.745,4.96-0.96c1.705-0.21,3.36-0.32,4.96-0.32s2.825,0.215,3.68,0.64
		c8.53,3.63,17.811,7.47,27.84,11.52c-2.56,20.27-4.59,34.67-6.08,43.2c-0.854,5.335-1.71,9.495-2.56,12.48h-69.76V245.438z
		 M708.396,259.199h70.399v187.52h-70.399V259.199z"/>
</g>
<g enable-background="new    ">
	<path d="M261.3,650.879c0.479,1.679,0.54,2.728,0.181,3.149c-0.36,0.419-0.721,0.63-1.08,0.63h-18.36h-25.56
		c-1.562,0-2.763-0.602-3.601-1.8c-0.962-1.08-2.762-3.389-5.399-6.93c-2.642-3.538-5.94-7.948-9.9-13.23
		c-3.96-5.279-8.37-11.188-13.23-17.729c-4.859-6.539-9.931-13.41-15.21-20.61c1.559,5.282,3.179,10.71,4.86,16.29
		c1.679,5.58,3.33,10.952,4.95,16.11c1.62,5.161,3.088,9.872,4.41,14.13c1.318,4.261,2.34,7.591,3.06,9.99
		c0.6,1.439,0.689,2.43,0.271,2.97c-0.422,0.54-0.751,0.81-0.99,0.81h-18.36H141.6c-0.602,0-1.231-0.151-1.89-0.449
		c-0.661-0.302-1.231-0.751-1.71-1.351c-2.52-3.357-8.041-10.738-16.56-22.14c-3.601-4.798-8.072-10.769-13.41-17.91
		c-5.341-7.138-11.7-15.688-19.08-25.65c-7.38-9.959-15.931-21.479-25.65-34.56c-9.72-13.078-20.821-28.08-33.3-45h44.82
		c0.478,0.602,2.219,2.821,5.22,6.66c2.998,3.842,6.809,8.792,11.43,14.85c4.618,6.061,9.869,12.932,15.75,20.61
		c5.878,7.681,11.998,15.66,18.36,23.94c-1.08-3.839-2.34-8.82-3.78-14.94c-1.321-5.279-2.97-12.088-4.95-20.43
		c-1.979-8.339-4.351-18.568-7.109-30.69h39.96c0.478,0.602,2.188,2.821,5.13,6.66c2.939,3.842,6.719,8.792,11.34,14.85
		c4.618,6.061,9.869,12.932,15.75,20.61c5.878,7.681,11.998,15.66,18.36,23.94c-1.08-3.839-2.402-8.879-3.96-15.12
		c-1.44-5.279-3.271-12.088-5.49-20.43c-2.222-8.339-4.891-18.509-8.01-30.51h37.439c0.239,0.602,0.929,2.97,2.07,7.11
		c1.139,4.14,2.638,9.422,4.5,15.84c1.859,6.421,3.929,13.652,6.21,21.69c2.278,8.041,4.618,16.262,7.02,24.66
		c2.399,8.401,4.771,16.712,7.11,24.93c2.34,8.221,4.469,15.75,6.39,22.59c1.919,6.84,3.569,12.6,4.95,17.28
		C259.888,646.379,260.82,649.438,261.3,650.879z"/>
	<path d="M464.16,531.179c10.198,9.242,17.28,19.651,21.24,31.23c3.96,11.582,4.379,24.452,1.26,38.61
		c-1.921,8.882-5.31,16.591-10.17,23.13c-4.86,6.542-10.771,12.091-17.73,16.65c-7.56,5.161-15.479,9.151-23.76,11.97
		s-16.802,4.649-25.56,5.49c-3.842,0.359-7.471,0.599-10.891,0.72c-3.42,0.118-7.29,0.18-11.609,0.18
		c-12.601-0.241-24.902-1.74-36.9-4.5c-7.321-1.682-14.399-3.96-21.24-6.84c-6.84-2.88-13.201-6.958-19.08-12.239
		c-10.2-9.24-17.279-19.648-21.239-31.23c-3.96-11.579-4.379-24.508-1.261-38.79c1.919-8.879,5.279-16.56,10.08-23.04
		c4.799-6.48,10.738-12.06,17.82-16.74c7.56-5.04,15.449-8.969,23.67-11.79c8.218-2.818,16.769-4.649,25.65-5.49
		c3.839-0.36,7.619-0.63,11.34-0.81c3.718-0.18,7.438-0.028,11.16,0.45v-0.54c12.6,0.242,24.898,1.741,36.899,4.5
		c7.318,1.682,14.4,3.96,21.24,6.84C451.92,521.819,458.28,525.899,464.16,531.179z M428.34,605.699
		c2.76-3.358,4.799-6.958,6.12-10.8c1.319-3.839,1.949-7.709,1.891-11.61c-0.062-3.898-0.811-7.74-2.25-11.52
		c-1.44-3.78-3.601-7.29-6.48-10.53c-3.6-4.078-7.532-7.498-11.79-10.26c-4.261-2.759-8.91-4.739-13.95-5.94
		c-2.401-0.599-4.891-1.108-7.47-1.53c-2.582-0.419-5.071-0.689-7.47-0.81c-7.082,0-14.04,1.26-20.88,3.78
		c-3.96,1.561-7.682,3.51-11.16,5.85c-3.482,2.34-6.602,5.251-9.36,8.73c-2.762,3.482-4.801,7.11-6.12,10.89
		c-1.321,3.78-1.951,7.591-1.89,11.43c0.059,3.842,0.81,7.65,2.25,11.43c1.439,3.78,3.6,7.29,6.479,10.53
		c3.601,4.202,7.589,7.411,11.971,9.63c4.379,2.222,9.027,3.932,13.949,5.13c2.521,0.602,5.01,1.052,7.471,1.35
		c2.458,0.301,4.888,0.512,7.29,0.63c3.479,0,6.958,0.031,10.439,0.09c3.479,0.062,6.958-0.568,10.44-1.89
		c3.96-1.558,7.678-3.51,11.16-5.85C422.459,612.089,425.578,609.181,428.34,605.699z"/>
	<path d="M654.959,602.099c-6.001,3.6-12.239,6.362-18.72,8.28c4.078,5.161,8.249,10.232,12.51,15.21
		c4.259,4.98,8.19,9.48,11.79,13.5c3.601,4.021,6.688,7.411,9.271,10.17c2.579,2.759,4.168,4.5,4.77,5.22
		c-0.602,0.118-1.052,0.18-1.35,0.18c-0.301,0-0.63,0-0.99,0c-7.2,0-14.372,0.028-21.51,0.091
		c-7.141,0.059-14.311,0.027-21.51-0.091c-0.603,0-1.232-0.151-1.891-0.449c-0.66-0.302-1.17-0.692-1.529-1.17
		c-1.322-1.559-3.15-3.719-5.49-6.48c-2.34-2.759-4.981-5.878-7.92-9.36c-2.942-3.479-6.062-7.138-9.36-10.979
		c-3.302-3.839-6.57-7.619-9.81-11.34h-19.261v39.78H530.4V507.779h43.56v2.34l6.48-1.08c18.959-2.759,37.558-1.62,55.8,3.42
		c5.4,1.561,10.53,3.572,15.391,6.03c4.859,2.461,9.328,5.732,13.409,9.81c5.64,5.76,9.6,12.091,11.88,18.99
		c2.278,6.902,2.939,13.742,1.98,20.52c-0.962,6.781-3.451,13.171-7.47,19.17C667.407,592.98,661.918,598.021,654.959,602.099z
		 M610.86,588.599c8.879-1.44,16.2-5.338,21.96-11.7c2.278-2.52,4.02-5.279,5.22-8.28c1.198-2.998,1.499-6.238,0.9-9.72
		c-0.602-4.559-2.222-8.429-4.86-11.61c-2.641-3.178-5.881-5.85-9.72-8.01c-3.842-2.039-7.771-3.479-11.79-4.32
		c-4.021-0.838-7.951-1.26-11.79-1.26c-5.04,0-9.81,0.481-14.31,1.44c-4.5,0.962-8.671,2.641-12.511,5.04v49.5h26.28
		c1.8,0,3.569-0.118,5.311-0.36C607.287,589.08,609.06,588.84,610.86,588.599z"/>
	<path d="M795.899,578.159c2.759,3.6,6.12,7.892,10.08,12.87c3.96,4.981,8.1,10.201,12.42,15.66
		c4.32,5.462,8.668,10.921,13.05,16.38c4.38,5.461,8.37,10.412,11.971,14.85c3.6,4.44,6.598,8.161,9,11.16
		c2.398,2.998,3.897,4.798,4.5,5.399c-0.603,0-1.08,0.028-1.44,0.09c-0.36,0.06-0.661,0.09-0.9,0.09c-7.199,0-14.399,0-21.6,0
		s-14.4-0.062-21.6-0.18c-0.603,0-1.232-0.151-1.891-0.45c-0.66-0.301-1.17-0.691-1.529-1.17c-1.201-1.439-2.971-3.628-5.311-6.569
		c-2.34-2.939-5.04-6.328-8.1-10.171c-3.061-3.839-6.362-7.948-9.9-12.33c-3.541-4.379-7.02-8.73-10.439-13.05
		c-3.42-4.32-6.723-8.429-9.9-12.33c-3.181-3.898-5.912-7.29-8.19-10.17v66.419h-43.56v-147.06h43.56v40.68
		c3.24-4.078,6.509-8.159,9.811-12.24c3.299-4.078,6.328-7.858,9.09-11.34c2.759-3.479,5.22-6.57,7.38-9.27
		c2.16-2.7,3.78-4.708,4.86-6.03c0.478-0.478,1.049-0.9,1.71-1.26c0.658-0.36,1.288-0.54,1.89-0.54h43.021
		c0.359,0,0.688,0.031,0.989,0.09c0.299,0.062,0.749,0.09,1.351,0.09c-0.481,0.602-1.71,2.101-3.69,4.5
		c-1.979,2.402-4.472,5.462-7.47,9.18c-3.001,3.721-6.362,7.892-10.08,12.51c-3.721,4.621-7.501,9.36-11.34,14.22
		c-3.842,4.86-7.681,9.692-11.521,14.49c-3.842,4.801-7.32,9.18-10.439,13.14c3.479-0.239,6.479-0.208,9,0.09
		C793.198,576.209,794.937,576.96,795.899,578.159z"/>
</g>
<g enable-background="new    ">
	<path d="M147.018,714.067c-0.396,0.462-1.222,1.47-2.475,3.02c-1.255,1.552-2.771,3.465-4.554,5.742
		c-1.782,2.277-3.747,4.786-5.891,7.524c-2.146,2.739-4.323,5.511-6.534,8.316c-2.212,2.806-4.355,5.561-6.435,8.267
		c-2.079,2.707-3.945,5.133-5.594,7.276c-1.65,2.146-3.004,3.91-4.06,5.297c-1.056,1.386-1.683,2.178-1.881,2.376
		c-0.265,0.331-0.512,0.66-0.742,0.989c-0.232,0.331-0.479,0.661-0.742,0.99c-1.123,1.386-2.195,2.772-3.218,4.158
		c-1.024,1.386-2.096,2.738-3.218,4.059H77.52c0.528-0.594,1.056-1.188,1.584-1.781c0.528-0.595,1.056-1.154,1.585-1.684
		c-1.123,0.331-2.344,0.693-3.663,1.089c-1.321,0.396-2.674,0.661-4.06,0.792c-5.281,0.461-10.379,0.182-15.295-0.841
		c-4.917-1.022-9.687-2.887-14.305-5.594c-3.829-2.243-6.848-5.015-9.059-8.316c-2.212-3.299-3.564-6.813-4.059-10.543
		c-0.495-3.728-0.116-7.49,1.139-11.286c1.253-3.794,3.431-7.276,6.534-10.444c2.178-2.31,4.619-4.141,7.326-5.495
		c2.706-1.352,5.544-2.426,8.514-3.218c5.015-1.451,10.081-2.309,15.196-2.574c5.114-0.263,10.247-0.033,15.395,0.693
		c2.837,0.396,5.626,0.958,8.366,1.683c2.737,0.727,5.396,1.717,7.969,2.97c2.243,0.99,4.258,2.195,6.039,3.614
		c1.782,1.42,3.332,2.987,4.653,4.703c1.451-1.847,2.903-3.679,4.356-5.495c1.45-1.814,2.903-3.646,4.355-5.495
		c0.198-0.263,0.479-0.478,0.842-0.644c0.362-0.164,0.708-0.248,1.039-0.248c3.96-0.065,7.92-0.082,11.88-0.049
		c3.96,0.034,7.921,0.049,11.881,0.049c0.131,0,0.297,0,0.494,0C146.424,713.968,146.687,714.002,147.018,714.067z M90.885,750.994
		c1.451-1.45,2.54-3.035,3.268-4.751c0.726-1.716,1.039-3.431,0.94-5.148c-0.1-1.715-0.562-3.398-1.387-5.049
		c-0.825-1.649-2.029-3.134-3.613-4.455c-2.376-1.98-4.95-3.332-7.722-4.059c-2.772-0.725-5.841-1.121-9.207-1.188
		c-2.113,0-4.257,0.248-6.436,0.743c-2.178,0.495-4.323,1.304-6.435,2.425c-2.178,1.123-3.994,2.574-5.445,4.356
		c-1.453,1.782-2.344,3.927-2.673,6.435c-0.264,1.915-0.083,3.697,0.545,5.346c0.626,1.65,1.599,3.168,2.92,4.554
		c1.584,1.782,3.398,3.202,5.445,4.257c2.045,1.057,4.223,1.782,6.534,2.179c3.168,0.528,6.252,0.678,9.257,0.445
		c3.002-0.23,5.955-1.072,8.86-2.524c0.923-0.461,1.831-0.99,2.723-1.584C89.351,752.381,90.158,751.722,90.885,750.994z"/>
	<path d="M220.279,691.396c0.329,0,0.56,0.017,0.693,0.049c0.131,0.034,0.494,0.017,1.089-0.049l-1.584,2.376
		c-0.858,1.254-1.52,2.228-1.98,2.92c-0.462,0.693-0.842,1.271-1.139,1.732c-0.297,0.463-0.61,0.925-0.94,1.386
		c-0.331,0.462-0.759,1.089-1.287,1.881c-0.989,1.519-1.964,2.756-2.92,3.712c-0.958,0.958-2.294,1.47-4.01,1.535
		c-0.792,0-1.717,0-2.771,0c-1.057,0-2.129-0.016-3.218-0.049c-1.089-0.033-2.146-0.05-3.168-0.05c-1.024,0-1.931,0-2.723,0
		c-0.529,0.066-1.04,0.215-1.534,0.446c-0.495,0.232-0.876,0.544-1.139,0.94c-0.198,0.264-0.644,0.925-1.337,1.98
		c-0.692,1.057-1.502,2.294-2.426,3.712c-0.925,1.42-1.947,2.955-3.068,4.604c-1.123,1.65-2.178,3.234-3.168,4.752v0.495h15.246
		v11.484h-15.246v22.671c0,2.112,0.049,4.257,0.148,6.435c0.099,2.178,0.114,4.323,0.05,6.436c0,0.329-0.116,0.626-0.347,0.891
		c-0.232,0.263-0.513,0.396-0.842,0.396c-2.178,0-3.812,0-4.9,0s-2.079,0-2.97,0c-0.892,0-1.931,0-3.119,0c-1.188,0-2.97,0-5.346,0
		v-7.623v-11.285v-61.975h17.325v7.92l5.444-7.92c5.214,0.067,10.411,0.099,15.593,0.099
		C209.866,691.297,215.064,691.332,220.279,691.396z"/>
	<path d="M313.734,739.51c1.121,11.419-2.938,20.263-12.177,26.532c-3.631,2.51-7.442,4.341-11.435,5.495
		c-3.994,1.153-8.135,1.963-12.425,2.426c-6.138,0.658-12.177,0.758-18.117,0.297c-5.939-0.463-11.814-1.849-17.622-4.158
		c-2.376-0.99-4.637-2.111-6.781-3.366c-2.146-1.253-4.076-2.705-5.791-4.355c-1.718-1.649-3.202-3.515-4.455-5.594
		c-1.255-2.079-2.212-4.438-2.871-7.079c-0.858-3.167-1.154-6.286-0.892-9.355c0.264-3.069,1.022-5.94,2.277-8.613
		c1.253-2.673,3.003-5.148,5.247-7.425c2.243-2.277,4.95-4.208,8.118-5.792c6.005-3.102,12.127-5.082,18.364-5.94
		c6.237-0.857,12.655-0.33,19.256,1.584c0.131,0,0.263-0.016,0.396-0.05c0.132-0.032,0.362-0.082,0.693-0.148
		c-3.564-3.827-7.079-7.589-10.544-11.286c-3.465-3.696-7.046-7.524-10.741-11.484c4.817,0,9.47,0,13.959,0
		c4.487,0,8.975,0.034,13.464,0.099c0.33,0,0.693,0.116,1.089,0.347c0.396,0.232,0.726,0.512,0.99,0.841
		c3.762,4.818,7.507,9.62,11.236,14.405c3.729,4.786,7.44,9.652,11.138,14.603c2.045,2.707,3.745,5.528,5.099,8.464
		C312.561,732.895,313.403,736.08,313.734,739.51z M285.222,753.568c1.847-1.518,3.232-3.2,4.157-5.049
		c0.924-1.847,1.387-3.712,1.387-5.594c0-1.881-0.479-3.728-1.436-5.544c-0.958-1.814-2.36-3.48-4.208-5
		c-2.509-1.98-5.214-3.416-8.118-4.306c-2.904-0.891-5.939-1.303-9.107-1.238c-3.168,0-6.237,0.43-9.207,1.287
		c-2.97,0.858-5.71,2.343-8.217,4.455c-1.782,1.519-3.119,3.168-4.01,4.95c-0.891,1.782-1.354,3.598-1.386,5.445
		c-0.034,1.848,0.396,3.68,1.287,5.494c0.891,1.816,2.228,3.45,4.009,4.9c2.243,1.915,4.9,3.366,7.97,4.356s6.203,1.485,9.405,1.485
		c3.2,0,6.336-0.462,9.405-1.387C280.222,756.902,282.91,755.483,285.222,753.568z"/>
	<path d="M416.495,717.434c2.97,1.386,5.576,3.152,7.82,5.296c2.243,2.146,4.06,4.521,5.445,7.128
		c1.386,2.608,2.292,5.396,2.723,8.366c0.429,2.97,0.347,5.974-0.248,9.009c-0.197,2.376-0.363,4.373-0.495,5.989
		c-0.133,1.618-0.313,3.069-0.544,4.356c-0.232,1.287-0.545,2.492-0.94,3.613c-0.396,1.123-0.958,2.312-1.684,3.564
		c-0.727,1.254-1.667,2.707-2.821,4.355c-1.155,1.649-2.591,3.629-4.307,5.94c-1.915,2.705-4.143,4.916-6.683,6.633
		c-2.541,1.716-5.33,3.134-8.365,4.257c-4.752,1.716-9.554,2.903-14.404,3.564c-4.851,0.658-9.785,0.856-14.801,0.594
		c-2.311-0.133-4.57-0.331-6.781-0.594c-2.212-0.265-4.405-0.661-6.583-1.188c-1.52-0.198-3.02-0.479-4.505-0.842
		c-1.485-0.363-2.987-0.841-4.505-1.436c-3.103-1.188-6.072-2.739-8.91-4.652c-2.838-1.915-5.214-4.225-7.128-6.931h0.693
		c-0.529-0.989-1.007-2.029-1.436-3.118c-0.43-1.089-0.742-2.228-0.94-3.415c0.065,0,0.347,0,0.842,0s1.039,0.017,1.633,0.049
		c0.595,0.034,1.122,0.05,1.584,0.05c0.461,0,0.759,0,0.892,0c0.726,0,1.336-0.016,1.831-0.05c0.495-0.032,0.906-0.049,1.237-0.049
		h1.09h0.989c0.33,0,0.743,0.017,1.238,0.049c0.494,0.034,1.104,0.05,1.831,0.05h10.593c0.726,0,1.387,0.297,1.98,0.891
		c0.064,0.198,0.23,0.431,0.495,0.693c0.594,0.66,1.22,1.287,1.881,1.881c1.253,1.055,2.54,1.914,3.86,2.574
		c0.065,0,0.1,0.032,0.1,0.099c0.198,0.065,0.429,0.164,0.692,0.297h4.356h-4.257l0.594,0.298h-0.198
		c0.99,0.197,2.145,0.428,3.465,0.692c1.32,0.263,2.31,0.429,2.971,0.495c2.705,0.132,5.494,0.132,8.365,0
		c2.871-0.133,5.594-0.957,8.168-2.475c1.055-0.595,2.012-1.287,2.87-2.079c0.857-0.792,1.485-1.468,1.882-2.029
		c0.396-0.561,0.494-0.956,0.297-1.188c-0.198-0.23-0.826-0.114-1.881,0.347c-1.123,0.331-2.327,0.692-3.614,1.089
		c-1.287,0.396-2.623,0.66-4.009,0.792c-5.281,0.461-10.396,0.181-15.346-0.842c-4.949-1.022-9.701-2.886-14.256-5.593
		c-3.895-2.243-6.947-5.016-9.157-8.316c-2.212-3.3-3.564-6.814-4.059-10.543c-0.495-3.728-0.116-7.49,1.138-11.286
		c1.253-3.794,3.432-7.276,6.534-10.444c2.178-2.243,4.619-4.042,7.326-5.396c2.705-1.352,5.544-2.458,8.514-3.316
		c10.099-2.772,20.295-3.366,30.592-1.782c2.837,0.396,5.626,0.958,8.365,1.683C411.263,715.29,413.921,716.246,416.495,717.434z
		 M406.694,750.896c1.451-1.451,2.54-3.035,3.268-4.752c0.726-1.716,1.039-3.431,0.94-5.148c-0.1-1.716-0.562-3.398-1.386-5.049
		c-0.826-1.649-2.03-3.134-3.614-4.455c-2.376-1.98-4.949-3.332-7.722-4.059c-2.772-0.726-5.841-1.089-9.207-1.089
		c-2.047,0-4.175,0.232-6.386,0.693c-2.212,0.462-4.373,1.254-6.484,2.376c-2.178,1.188-3.994,2.657-5.445,4.405
		c-1.452,1.75-2.343,3.878-2.673,6.386c-0.265,1.915-0.083,3.697,0.545,5.346c0.626,1.651,1.6,3.168,2.92,4.554
		c1.584,1.782,3.399,3.202,5.445,4.257c2.045,1.057,4.223,1.782,6.534,2.178c3.168,0.529,6.252,0.678,9.257,0.446
		c3.002-0.23,5.955-1.04,8.86-2.426C403.393,753.568,405.11,752.348,406.694,750.896z"/>
	<path d="M525.345,754.113c-0.431,1.354-1.008,2.657-1.732,3.91c0.263,1.519,0.411,3.004,0.445,4.455
		c0.032,1.452-0.084,2.871-0.347,4.257c-1.98-0.726-3.896-1.319-5.742-1.782c-2.707,2.376-6.007,4.324-9.899,5.842
		c-3.631,1.386-7.623,2.475-11.979,3.267s-8.647,1.154-12.87,1.089c-4.423-0.066-8.795-0.445-13.117-1.139
		c-4.323-0.692-8.563-1.964-12.722-3.812c-0.331-0.131-0.611-0.263-0.842-0.396c-0.231-0.132-0.479-0.264-0.742-0.396
		c1.649-2.507,3.3-4.999,4.95-7.475c1.648-2.475,3.332-4.965,5.049-7.475c1.319,1.321,2.97,2.51,4.95,3.564
		c2.045,0.99,4.141,1.7,6.286,2.129c2.145,0.43,4.372,0.644,6.683,0.644c0.857-0.065,1.683-0.115,2.475-0.149
		c0.792-0.032,1.617-0.114,2.476-0.247c1.913-0.263,3.728-0.708,5.445-1.337c1.715-0.626,3.331-1.5,4.851-2.623
		c-0.331-0.461-0.678-0.906-1.04-1.337c-0.363-0.428-0.776-0.841-1.237-1.237c-1.65-1.584-3.465-2.805-5.444-3.663
		c-0.265-0.131-0.513-0.247-0.743-0.347c-0.231-0.099-0.512-0.213-0.841-0.346c-5.215-0.792-10.313-1.946-15.296-3.465
		c-4.984-1.518-9.554-3.728-13.712-6.633c-0.197-0.528-0.66-1.221-1.386-2.079c-1.386-1.649-2.046-3.316-1.979-5
		c0.064-1.683,0.495-3.267,1.287-4.752c0.792-1.485,1.765-2.822,2.92-4.01c1.154-1.188,2.129-2.079,2.921-2.673
		c0.131,0,0.197,0.034,0.197,0.099c2.179-1.649,4.555-3.002,7.129-4.059c4.816-1.98,9.701-3.316,14.651-4.01
		c4.95-0.693,9.999-0.906,15.147-0.643c3.232,0.133,6.418,0.462,9.553,0.99c3.135,0.529,6.221,1.354,9.257,2.475
		c-1.123,1.123-2.128,2.277-3.02,3.465c-0.891,1.188-1.7,2.442-2.426,3.762c-0.792,1.519-1.584,2.987-2.376,4.405
		c-0.792,1.42-1.584,2.855-2.376,4.307c-2.573-1.319-5.231-2.128-7.969-2.425c-2.74-0.297-5.529-0.28-8.366,0.049
		c-1.848,0.198-3.613,0.562-5.296,1.089c-1.684,0.529-3.252,1.254-4.703,2.178c1.188,0.858,2.343,1.551,3.466,2.079
		c0.263,0.133,0.51,0.247,0.742,0.346c0.23,0.099,0.511,0.215,0.842,0.347c5.346,0.792,10.526,1.964,15.543,3.514
		c5.015,1.552,9.635,3.846,13.859,6.881c0.461,0.727,0.906,1.436,1.337,2.128c0.429,0.693,0.808,1.403,1.139,2.129h5.741
		C526.152,751.391,525.773,752.761,525.345,754.113z"/>
	<path d="M606.97,713.968h21.779v35.244l-0.099,0.198c-0.066,3.896-0.099,7.178-0.099,9.851s-0.1,4.95-0.298,6.831
		c-0.197,1.881-0.528,3.515-0.989,4.9c-0.463,1.387-1.188,2.772-2.179,4.158c-1.915,2.639-4.143,4.834-6.682,6.584
		c-2.542,1.747-5.331,3.183-8.366,4.306c-2.376,0.857-4.472,1.567-6.286,2.129c-1.816,0.56-3.531,0.99-5.148,1.287
		c-1.618,0.297-3.234,0.495-4.851,0.594c-1.618,0.1-3.383,0.148-5.297,0.148c-2.244,0-4.373-0.034-6.385-0.099
		c-2.015-0.066-4.274-0.431-6.782-1.089c-3.036-0.728-6.105-1.684-9.207-2.871c-3.103-1.188-5.924-2.707-8.464-4.555
		c-2.542-1.848-4.77-4.093-6.683-6.731c-1.255-2.178-2.113-4.455-2.574-6.831h4.95h4.158h4.059c0.198,0,0.824,0.017,1.881,0.05
		c1.055,0.034,2.193,0.049,3.416,0.049c1.22,0,2.358,0,3.415,0c1.055,0,1.683,0,1.881,0c0.857,0,1.518,0.297,1.98,0.892
		c0.263,0.396,0.429,0.628,0.495,0.692h0.099c0.263,0.331,0.56,0.644,0.891,0.94c0.33,0.298,0.659,0.61,0.99,0.941
		c1.253,1.055,2.54,1.913,3.861,2.573l0.099,0.1c0.263,0.131,0.495,0.23,0.693,0.297h0.099c0.065,0.064,0.23,0.164,0.495,0.297
		h-0.198c0.99,0.198,2.145,0.445,3.465,0.742s2.31,0.445,2.971,0.445c0.792,0,1.584,0.016,2.376,0.05
		c0.792,0.032,1.683-0.099,2.673-0.396c0.99-0.298,2.129-0.876,3.415-1.732c1.287-0.859,2.854-2.146,4.703-3.861
		c2.44-2.178,4.01-4.653,4.702-7.425c0.693-2.772,1.04-5.94,1.04-9.504V713.968z M606.672,709.711
		c-2.244-0.594-4.454-1.204-6.633-1.832c-2.178-0.626-4.422-1.27-6.731-1.931c0.396-0.329,0.708-0.594,0.94-0.792
		c0.23-0.198,0.478-0.396,0.742-0.594c3.695-2.441,7.358-4.554,10.989-6.336c3.629-1.782,7.326-3.861,11.088-6.237
		c0.198-0.131,0.545-0.263,1.039-0.396c0.495-0.131,1.006-0.23,1.535-0.297c0.527-0.065,1.039-0.099,1.534-0.099
		s0.874,0.067,1.139,0.198c2.639,1.123,5.51,2.311,8.613,3.564c-0.396,3.168-0.76,5.841-1.09,8.019
		c-0.331,2.178-0.628,3.96-0.891,5.346c-0.265,1.651-0.495,2.938-0.693,3.861h-21.582V709.711z"/>
	<path d="M713.394,716.642c5.346,2.244,9.421,5.296,12.227,9.157c2.805,3.861,4.074,8.828,3.812,14.899
		c-0.198,4.819-0.265,9.62-0.198,14.404c0.065,4.786,0.1,9.62,0.1,14.504v2.475h-24.058v-2.376c0-4.752,0.016-9.52,0.05-14.305
		c0.032-4.785,0.016-9.554-0.05-14.306c0-4.158-0.957-7.309-2.871-9.454c-1.915-2.144-4.917-3.448-9.009-3.911
		c-2.838-0.198-5.709,0.066-8.613,0.792c-5.28,1.321-7.92,5.182-7.92,11.583c-0.066,4.95-0.099,9.851-0.099,14.701
		c0,4.852,0,9.752,0,14.702v2.573h-1.386h-22.572v-2.376v-29.403v-49.104h22.572v22.671c6.467-1.386,12.87-1.914,19.206-1.584
		C700.92,712.617,707.19,714.067,713.394,716.642z"/>
	<path d="M832.69,717.434c2.97,1.386,5.576,3.152,7.82,5.296c2.243,2.146,4.06,4.521,5.445,7.128
		c1.386,2.608,2.292,5.396,2.723,8.366c0.429,2.97,0.347,5.974-0.248,9.009c-0.197,2.376-0.363,4.373-0.495,5.989
		c-0.133,1.618-0.313,3.069-0.544,4.356c-0.232,1.287-0.545,2.492-0.94,3.613c-0.396,1.123-0.958,2.312-1.684,3.564
		c-0.727,1.254-1.667,2.707-2.821,4.355c-1.155,1.649-2.591,3.629-4.307,5.94c-1.915,2.705-4.143,4.916-6.683,6.633
		c-2.541,1.716-5.33,3.134-8.365,4.257c-4.752,1.716-9.554,2.903-14.404,3.564c-4.851,0.658-9.785,0.856-14.801,0.594
		c-2.311-0.133-4.57-0.331-6.781-0.594c-2.212-0.265-4.405-0.661-6.583-1.188c-1.52-0.198-3.02-0.479-4.505-0.842
		c-1.485-0.363-2.987-0.841-4.505-1.436c-3.103-1.188-6.072-2.739-8.91-4.652c-2.838-1.915-5.214-4.225-7.128-6.931h0.693
		c-0.529-0.989-1.007-2.029-1.436-3.118c-0.43-1.089-0.742-2.228-0.94-3.415c0.065,0,0.347,0,0.842,0s1.039,0.017,1.633,0.049
		c0.595,0.034,1.122,0.05,1.584,0.05c0.461,0,0.759,0,0.892,0c0.726,0,1.336-0.016,1.831-0.05c0.495-0.032,0.906-0.049,1.237-0.049
		h1.09h0.989c0.33,0,0.743,0.017,1.238,0.049c0.494,0.034,1.104,0.05,1.831,0.05h10.593c0.726,0,1.387,0.297,1.98,0.891
		c0.064,0.198,0.23,0.431,0.495,0.693c0.594,0.66,1.22,1.287,1.881,1.881c1.253,1.055,2.54,1.914,3.86,2.574
		c0.065,0,0.1,0.032,0.1,0.099c0.198,0.065,0.429,0.164,0.692,0.297h4.356h-4.257l0.594,0.298h-0.198
		c0.99,0.197,2.145,0.428,3.465,0.692c1.32,0.263,2.31,0.429,2.971,0.495c2.705,0.132,5.494,0.132,8.365,0
		c2.871-0.133,5.594-0.957,8.168-2.475c1.055-0.595,2.012-1.287,2.87-2.079c0.857-0.792,1.485-1.468,1.882-2.029
		c0.396-0.561,0.494-0.956,0.297-1.188c-0.198-0.23-0.826-0.114-1.881,0.347c-1.123,0.331-2.327,0.692-3.614,1.089
		c-1.287,0.396-2.623,0.66-4.009,0.792c-5.281,0.461-10.396,0.181-15.346-0.842c-4.949-1.022-9.701-2.886-14.256-5.593
		c-3.895-2.243-6.947-5.016-9.157-8.316c-2.212-3.3-3.564-6.814-4.059-10.543c-0.495-3.728-0.116-7.49,1.138-11.286
		c1.253-3.794,3.432-7.276,6.534-10.444c2.178-2.243,4.619-4.042,7.326-5.396c2.705-1.352,5.544-2.458,8.514-3.316
		c10.099-2.772,20.295-3.366,30.592-1.782c2.837,0.396,5.626,0.958,8.365,1.683C827.457,715.29,830.115,716.246,832.69,717.434z
		 M822.888,750.896c1.451-1.451,2.54-3.035,3.268-4.752c0.726-1.716,1.039-3.431,0.94-5.148c-0.1-1.716-0.562-3.398-1.386-5.049
		c-0.826-1.649-2.03-3.134-3.614-4.455c-2.376-1.98-4.949-3.332-7.722-4.059c-2.772-0.726-5.841-1.089-9.207-1.089
		c-2.047,0-4.175,0.232-6.386,0.693c-2.212,0.462-4.373,1.254-6.484,2.376c-2.178,1.188-3.994,2.657-5.445,4.405
		c-1.452,1.75-2.343,3.878-2.673,6.386c-0.265,1.915-0.083,3.697,0.545,5.346c0.626,1.651,1.6,3.168,2.92,4.554
		c1.584,1.782,3.399,3.202,5.445,4.257c2.045,1.057,4.223,1.782,6.534,2.178c3.168,0.529,6.252,0.678,9.257,0.446
		c3.002-0.23,5.955-1.04,8.86-2.426C819.587,753.568,821.304,752.348,822.888,750.896z"/>
</g>
<g enable-background="new    ">
	<path d="M122.66,824.524c-1.13-1.356-2.242-2.673-3.334-3.955c-1.093-1.28-2.203-2.636-3.333-4.067c0.376,0,0.695-0.018,0.96-0.057
		c0.264-0.037,0.546-0.057,0.848-0.057h30.51c1.205,0,2.147,0.49,2.825,1.469c2.261,3.616,4.538,7.195,6.837,10.735
		c2.297,3.542,4.537,7.118,6.724,10.735c0.828,1.355,1.543,2.787,2.146,4.293c0.603,1.508,1.317,3.09,2.147,4.746h-2.147h-35.82
		c-1.131,0-2.034-0.339-2.713-1.017c-5.048-4.746-11.112-7.685-18.192-8.813c-4.22-0.603-8.401-0.848-12.543-0.734
		c-4.145,0.112-8.249,0.886-12.317,2.316c-2.712,0.903-5.236,2.109-7.571,3.615c-2.336,1.508-4.482,3.354-6.44,5.537
		c-1.884,2.109-3.277,4.37-4.181,6.78c-0.904,2.411-1.339,4.821-1.3,7.231c0.037,2.412,0.564,4.803,1.582,7.176
		c1.017,2.373,2.504,4.576,4.463,6.61c2.41,2.562,5.122,4.54,8.137,5.933c3.012,1.395,6.215,2.469,9.604,3.221
		c4.973,1.057,9.849,1.469,14.634,1.242c4.783-0.225,9.549-1.242,14.294-3.051c4.143-1.656,7.685-3.955,10.622-6.893
		c0.753-0.678,0.753-1.43,0-2.26c-2.109-2.41-4.2-4.783-6.271-7.119c-2.072-2.334-4.2-4.67-6.384-7.006
		c-0.152-0.15-0.283-0.301-0.396-0.452c-0.113-0.149-0.246-0.339-0.396-0.565c0.376-0.074,0.865-0.113,1.469-0.113h39.324
		c0.602,0,1.147,0.076,1.639,0.227c0.488,0.152,0.921,0.527,1.299,1.131c1.506,1.959,3.032,3.898,4.577,5.818
		c1.543,1.922,3.068,3.861,4.576,5.82c0.602,0.678,0.752,1.469,0.452,2.373c-2.26,6.779-5.67,12.412-10.227,16.893
		c-4.559,4.484-10.076,8.08-16.555,10.791c-5.273,2.188-10.642,3.844-16.103,4.973c-5.463,1.131-11.018,1.922-16.667,2.373
		c-11.904,0.904-23.617,0.074-35.144-2.486c-4.972-1.055-9.794-2.486-14.464-4.293c-4.672-1.809-9.003-4.369-12.995-7.684
		c-6.932-5.801-11.791-12.318-14.577-19.55c-2.786-7.231-3.088-15.329-0.904-24.295c1.28-5.574,3.597-10.396,6.95-14.464
		c3.351-4.068,7.401-7.571,12.147-10.51c10.32-6.252,21.583-9.904,33.787-10.961c3.616-0.3,7.212-0.469,10.791-0.508
		c3.577-0.037,7.176,0.471,10.792,1.525c2.636,0.754,5.179,1.695,7.627,2.824c2.447,1.131,4.877,2.412,7.289,3.843
		c0.452,0.302,0.828,0.528,1.13,0.678H122.66z"/>
	<path d="M279.051,834.073c-4.37,5.915-8.249,11.169-11.639,15.763c-3.994,5.351-7.723,10.396-11.188,15.143
		c-3.164,4.22-6.215,8.306-9.152,12.261c-2.938,3.954-5.65,7.628-8.137,11.017c-1.581,2.188-3.146,4.295-4.689,6.328
		c-1.545,2.035-2.957,3.898-4.237,5.594c-1.281,1.695-2.393,3.127-3.333,4.295c-0.943,1.168-1.564,1.977-1.865,2.43
		c-0.226,0.299-0.547,0.545-0.96,0.734c-0.415,0.186-0.811,0.281-1.187,0.281h-27.007c-0.227,0-0.435,0-0.622,0
		c-0.188,0-0.471-0.039-0.847-0.113c0.226-0.225,0.903-1.072,2.033-2.541s2.6-3.371,4.407-5.707
		c1.809-2.334,3.898-5.047,6.271-8.137c2.373-3.088,4.916-6.385,7.628-9.887c2.712-3.503,5.498-7.137,8.361-10.904
		c2.862-3.767,5.725-7.496,8.589-11.188c-0.528-1.958-1.282-4.859-2.261-8.701c-0.829-3.314-1.997-7.777-3.503-13.391
		c-1.508-5.611-3.429-12.862-5.763-21.752h23.052c0.15,0.451,0.413,1.412,0.791,2.881c0.376,1.47,0.848,3.203,1.413,5.199
		c0.564,1.996,1.147,4.162,1.751,6.496c0.603,2.336,1.204,4.597,1.808,6.781c2.261-2.938,4.351-5.65,6.271-8.137
		c1.922-2.486,3.597-4.67,5.029-6.554c1.43-1.882,2.579-3.407,3.446-4.577c0.865-1.166,1.412-1.863,1.639-2.09h27.571
		C287.979,822.002,283.419,828.16,279.051,834.073z"/>
	<path d="M418.04,815.711v21.582h-30.962l-41.697,70.625h-31.526c7.532-11.299,15.349-22.976,23.447-35.029
		c8.097-12.053,16.063-23.918,23.899-35.596h-38.533v-21.582H418.04z"/>
	<path d="M534.091,905.771c0.15,0.301,0.3,0.602,0.452,0.904c0.15,0.301,0.376,0.715,0.678,1.242h-6.328
		c-3.466,0-6.932-0.02-10.396-0.057c-3.466-0.039-6.932,0.018-10.396,0.17c-1.281,0.074-2.336-0.152-3.164-0.678
		c-0.829-0.527-1.545-1.318-2.146-2.373c-1.809-3.164-3.729-6.215-5.763-9.152l-16.386-22.826c-3.09,0-6.479,0.02-10.17,0.057
		c-3.691,0.038-7.985,0.057-12.882,0.057c-0.604,0-1.243-0.188-1.921-0.566c-0.678-0.375-1.206-0.827-1.582-1.355
		c-1.356-2.033-2.618-3.859-3.785-5.48c-1.169-1.619-2.316-3.221-3.447-4.803c-1.13-1.582-2.279-3.201-3.446-4.858
		c-1.169-1.656-2.43-3.503-3.785-5.537c-0.227-0.3-0.415-0.603-0.565-0.904c-0.151-0.3-0.378-0.715-0.678-1.243h24.747
		l-14.577-20.34c-1.206-1.732-2.469-3.371-3.785-4.916c-1.319-1.543-2.619-3.257-3.898-5.141c-0.227-0.301-0.415-0.602-0.565-0.904
		c-0.151-0.3-0.378-0.715-0.678-1.242h74.58l2.712,3.276c0.452,0.302,0.865,0.791,1.243,1.469c1.882,2.938,3.803,5.819,5.763,8.645
		c1.958,2.825,3.916,5.669,5.876,8.532c0.3,0.451,0.489,0.697,0.565,0.734c0.074,0.039,0.13,0.057,0.169,0.057
		c0.037,0,0.113,0.057,0.227,0.169c0.112,0.112,0.356,0.435,0.734,0.96c-0.604,0.076-1.093,0.133-1.47,0.17
		c-0.377,0.039-0.717,0.057-1.017,0.057c-5.124,0-9.568,0.02-13.334,0.057c-3.768,0.039-7.176,0.096-10.227,0.17
		c-3.051,0.075-5.876,0.132-8.475,0.169c-2.6,0.038-5.255,0.057-7.967,0.057c0.979,1.356,1.921,2.694,2.825,4.011
		c0.903,1.319,1.845,2.656,2.825,4.012h20.792l2.712,3.277c0.226,0.227,0.452,0.452,0.678,0.678
		c0.226,0.227,0.413,0.491,0.565,0.791c1.882,2.938,3.803,5.82,5.763,8.645c1.958,2.825,3.916,5.67,5.876,8.531
		c0.3,0.453,0.489,0.717,0.564,0.791c0.074,0.076,0.131,0.113,0.17,0.113c0.037,0,0.113,0.057,0.226,0.17
		c0.113,0.113,0.357,0.396,0.735,0.848c-0.604,0.076-1.094,0.132-1.47,0.169c-0.378,0.039-0.717,0.057-1.017,0.057
		c-3.842,0.076-7.289,0.112-10.34,0.112s-5.896,0.039-8.531,0.113c3.842,5.65,7.664,11.227,11.47,16.725
		C526.651,894.887,530.4,900.348,534.091,905.771z M438.832,848.48c-0.152,0-0.265-0.037-0.339-0.113
		C438.568,848.443,438.68,848.48,438.832,848.48z M439.284,848.48c0.149,0,0.243,0.02,0.282,0.057
		c0.037,0.039,0.131,0.057,0.282,0.057c-0.151,0-0.245-0.018-0.282-0.057C439.528,848.5,439.434,848.48,439.284,848.48z
		 M440.64,848.594c0.15,0.076,0.207,0.113,0.17,0.113C440.771,848.707,440.714,848.67,440.64,848.594z"/>
	<path d="M572.849,836.729c-2.562-0.678-5.085-1.373-7.571-2.09c-2.485-0.716-5.048-1.45-7.684-2.204
		c0.452-0.376,0.809-0.679,1.073-0.903c0.264-0.227,0.546-0.453,0.848-0.679c4.218-2.786,8.399-5.198,12.543-7.231
		c4.143-2.035,8.362-4.408,12.656-7.119c0.226-0.15,0.621-0.301,1.187-0.453c0.564-0.149,1.147-0.262,1.751-0.338
		c0.603-0.074,1.187-0.113,1.752-0.113c0.564,0,0.997,0.076,1.3,0.227c3.012,1.281,6.289,2.637,9.831,4.067
		c-0.904,7.157-1.621,12.243-2.147,15.255c-0.302,1.884-0.604,3.354-0.904,4.407h-24.634V836.729z M572.849,841.588h24.86v66.217
		h-24.86V841.588z"/>
	<path d="M652.853,841.588v3.615c0,5.5-0.02,10.961-0.057,16.385c-0.039,5.425-0.02,10.849,0.057,16.272
		c0,4.746,1.095,8.362,3.288,10.849c2.192,2.486,5.632,3.955,10.319,4.406c3.249,0.227,6.538-0.074,9.865-0.904
		c6.047-1.506,9.071-5.912,9.071-13.221c0.074-5.65,0.094-11.243,0.057-16.78c-0.039-5.537-0.02-11.13,0.057-16.78v-3.842h27.346
		v3.615v33.562c0,4.294-0.415,8.062-1.243,11.3c-0.83,3.24-2.166,6.045-4.012,8.418c-1.847,2.373-4.237,4.371-7.175,5.99
		c-2.938,1.619-6.48,2.918-10.622,3.898c-7.76,1.881-15.501,2.711-23.222,2.486c-7.723-0.227-15.351-1.922-22.883-5.086
		c-6.102-2.561-10.754-6.045-13.955-10.453c-3.203-4.406-4.65-10.074-4.351-17.006c0.226-5.498,0.3-10.979,0.226-16.441
		c-0.075-5.461-0.112-10.979-0.112-16.555v-3.729H652.853z"/>
	<path d="M845.856,870.742c1.28,13.033-3.353,23.127-13.898,30.283c-4.145,2.863-8.494,4.955-13.052,6.271
		c-4.559,1.316-9.285,2.24-14.182,2.77c-7.006,0.752-13.898,0.865-20.679,0.338s-13.486-2.109-20.114-4.746
		c-2.712-1.129-5.293-2.41-7.74-3.842c-2.449-1.43-4.652-3.088-6.61-4.973c-1.96-1.881-3.655-4.01-5.085-6.383
		c-1.433-2.373-2.525-5.066-3.277-8.08c-0.979-3.616-1.317-7.176-1.017-10.679c0.3-3.503,1.167-6.78,2.599-9.831
		c1.431-3.051,3.427-5.876,5.989-8.475c2.56-2.6,5.649-4.803,9.266-6.611c6.854-3.539,13.843-5.8,20.962-6.779
		c7.119-0.979,14.444-0.377,21.979,1.808c0.149,0,0.3-0.018,0.452-0.057c0.149-0.036,0.413-0.093,0.791-0.169
		c-4.068-4.369-8.08-8.662-12.035-12.883c-3.955-4.218-8.042-8.588-12.26-13.107c5.498,0,10.809,0,15.933,0
		c5.122,0,10.244,0.039,15.368,0.113c0.376,0,0.791,0.132,1.243,0.395c0.451,0.266,0.828,0.585,1.13,0.961
		c4.294,5.5,8.568,10.98,12.825,16.441c4.255,5.463,8.492,11.018,12.713,16.668c2.334,3.09,4.274,6.311,5.819,9.661
		C844.518,863.189,845.479,866.825,845.856,870.742z M813.312,886.787c2.108-1.732,3.69-3.652,4.746-5.763
		c1.055-2.108,1.582-4.237,1.582-6.384c0-2.147-0.547-4.256-1.639-6.328c-1.093-2.071-2.694-3.973-4.802-5.707
		c-2.864-2.26-5.952-3.898-9.267-4.916c-3.315-1.017-6.779-1.486-10.396-1.412c-3.616,0-7.119,0.491-10.509,1.469
		c-3.391,0.98-6.518,2.676-9.38,5.086c-2.033,1.733-3.559,3.615-4.576,5.649c-1.017,2.034-1.545,4.106-1.582,6.216
		c-0.039,2.109,0.452,4.199,1.469,6.271c1.018,2.072,2.543,3.937,4.577,5.594c2.56,2.186,5.593,3.842,9.097,4.971
		c3.503,1.131,7.08,1.695,10.734,1.695c3.653,0,7.232-0.525,10.735-1.582C807.606,890.592,810.674,888.973,813.312,886.787z"/>
</g>
<g enable-background="new    ">
	<path d="M166.193,1016.99c-2.839,4.107-5.544,8.008-8.12,11.704s-5.283,7.561-8.12,11.592c-0.375,0.521-0.896,0.989-1.568,1.4
		c-0.672,0.409-1.307,0.616-1.903,0.616H75.136c-0.672,0-1.12-0.3-1.344-0.896c-0.15-0.672,0.037-1.344,0.56-2.016
		c0.673-0.97,2.053-2.949,4.145-5.937c2.09-2.985,4.572-6.569,7.448-10.752c2.873-4.181,6.009-8.716,9.407-13.608
		c3.397-4.889,6.738-9.688,10.024-14.391c3.285-4.705,6.365-9.109,9.24-13.217c2.873-4.105,5.208-7.504,7-10.191
		c-3.884,0.224-7.543,0.934-10.977,2.127c-2.539,0.823-4.891,1.924-7.056,3.305c-2.166,1.383-4.144,3.08-5.936,5.096
		c-2.315,2.465-3.809,5.303-4.48,8.512c-5.152-1.865-10.268-3.64-15.344-5.319c-5.079-1.681-10.192-3.453-15.344-5.32
		c1.567-3.956,3.713-7.429,6.439-10.416c2.725-2.985,5.953-5.601,9.688-7.84c4.777-2.912,9.743-5.188,14.896-6.832
		c5.152-1.642,10.528-2.688,16.128-3.136c3.36-0.298,6.682-0.466,9.968-0.504c3.285-0.037,6.608,0.43,9.969,1.399
		c2.389,0.673,4.721,1.531,7,2.576c2.276,1.046,4.497,2.203,6.664,3.472l1.008,0.672h0.224c1.94,0,3.621,0,5.04,0
		c1.418,0,2.93,0,4.536,0c1.604,0,3.041,0,4.312,0c0.074,0,0.242,0.057,0.505,0.168c0.261,0.112,0.484,0.281,0.672,0.504
		c0.186,0.225,0.224,0.58,0.111,1.064c-0.111,0.486-0.43,1.14-0.951,1.96l-10.528,15.456l-25.984,38.752H166.193z"/>
	<path d="M311.344,1007.246c-2.391,3.66-4.779,7.28-7.168,10.864c-2.391,3.584-4.779,7.168-7.168,10.752
		c1.493,2.24,3.005,4.443,4.536,6.608c1.529,2.166,3.08,4.443,4.647,6.832H229.92c-2.912-4.181-5.339-7.672-7.28-10.473
		c-1.942-2.8-3.547-5.096-4.815-6.888c-1.42-2.016-2.54-3.696-3.36-5.04c-0.599-0.82-0.784-1.512-0.56-2.072
		c0.224-0.56,0.633-0.84,1.231-0.84h63.056l5.713-9.744H229.92c-2.912-4.18-5.339-7.672-7.28-10.472
		c-1.942-2.8-3.547-5.097-4.815-6.888c-1.42-2.016-2.54-3.696-3.36-5.04c-0.599-0.821-0.784-1.513-0.56-2.072
		c0.224-0.56,0.633-0.84,1.231-0.84h83.552l3.36-5.712H229.92c-2.912-4.182-5.339-7.672-7.28-10.473
		c-1.942-2.8-3.547-5.096-4.815-6.888c-1.42-2.016-2.54-3.696-3.36-5.04c-0.599-0.82-0.784-1.512-0.56-2.072
		c0.224-0.56,0.633-0.84,1.231-0.84c8.512,0,15.754,0,21.729,0c5.973,0,11.404,0,16.296,0c4.89,0,9.632-0.018,14.224-0.056
		c4.592-0.036,9.762-0.056,15.512-0.056c5.749,0,12.469,0,20.16,0c7.689,0,17.061,0,28.112,0h17.92
		c-1.195,1.791-2.371,3.584-3.528,5.375c-1.158,1.793-2.371,3.548-3.64,5.265c1.717,2.464,3.416,4.892,5.096,7.28
		c1.681,2.391,3.378,4.891,5.097,7.504h-20.049c-1.567,2.391-3.155,4.799-4.76,7.224c-1.606,2.427-3.23,4.835-4.872,7.224
		c1.941,2.764,3.845,5.488,5.712,8.177c1.866,2.688,3.809,5.487,5.824,8.399H311.344z"/>
	<path d="M512.72,991.119c-0.15,0.223-0.431,0.69-0.84,1.399c-0.411,0.71-0.859,1.419-1.344,2.128
		c-0.487,0.711-0.952,1.383-1.4,2.016c-0.448,0.636-0.711,1.027-0.784,1.176c-1.344,2.017-2.427,3.604-3.248,4.761
		c-0.822,1.158-1.587,2.222-2.296,3.192c-0.71,0.971-1.494,2.035-2.352,3.191c-0.859,1.158-1.96,2.744-3.305,4.76
		c-0.374,0.523-0.896,0.972-1.567,1.344c-0.672,0.375-1.308,0.561-1.904,0.561c-1.792,0-4.536,0.02-8.232,0.057
		c-3.695,0.037-7.971,0.055-12.823,0.055c-2.167,3.062-4.2,5.956-6.104,8.681c-1.903,2.727-3.584,5.152-5.04,7.28
		s-2.632,3.846-3.527,5.151c-0.896,1.308-1.456,2.11-1.681,2.408c-0.672,1.047-1.399,1.829-2.184,2.353
		c-0.784,0.521-1.812,0.745-3.08,0.672c-3.436-0.15-6.87-0.188-10.304-0.112c-3.436,0.073-6.871,0.112-10.305,0.112h-6.271
		c0.073-0.15,0.56-0.916,1.456-2.296c0.896-1.381,2.128-3.248,3.695-5.601c1.568-2.352,3.434-5.113,5.601-8.288
		c2.165-3.173,4.479-6.625,6.944-10.36h-18.48h-7.728c-2.615,0-5.975,0.02-10.08,0.057c-4.107,0.039-9.072,0.02-14.896-0.057
		l46.145-64.848l29.119-0.111c-3.211,4.703-6.048,8.867-8.512,12.488c-2.464,3.622-4.742,6.982-6.832,10.079
		c-2.091,3.1-4.088,6.067-5.992,8.904c-1.903,2.839-3.902,5.787-5.991,8.849H458.4c3.733-5.525,7.393-10.921,10.977-16.185
		c3.584-5.265,6.832-10.098,9.744-14.504c0.372-0.521,0.913-0.933,1.624-1.232c0.708-0.298,1.361-0.448,1.96-0.448
		c2.389-0.073,4.665-0.111,6.832-0.111c2.164,0,4.292,0,6.384,0c2.089,0,4.218,0,6.384,0c2.165,0,4.441,0,6.832,0
		c1.493,0,2.053,0.486,1.68,1.455c-0.374,0.973-1.307,2.54-2.8,4.705c-2.016,3.062-4.107,6.143-6.271,9.24
		c-2.167,3.099-4.145,5.918-5.937,8.455c-2.091,2.987-4.144,5.863-6.16,8.625h20.721H512.72z"/>
	<path d="M676.799,951.022c0,0.075-0.039,0.15-0.112,0.224l-0.224,0.225h0.111h-0.111c-0.523,0.747-1.383,1.998-2.576,3.752
		c-1.195,1.755-2.539,3.734-4.032,5.936c-1.494,2.203-3.023,4.443-4.592,6.721s-2.95,4.275-4.145,5.992
		c-0.374,0.447-0.896,0.878-1.567,1.287c-0.672,0.412-1.308,0.616-1.904,0.616c-5.526,0-10.343-0.018-14.448-0.056
		c-4.106-0.037-7.84-0.074-11.199-0.112c-3.36-0.036-6.535-0.073-9.521-0.112c-2.987-0.037-6.16-0.092-9.52-0.168
		c-0.823,1.344-1.644,2.651-2.464,3.92c-0.823,1.271-1.756,2.688-2.801,4.256c4.48-0.148,8.885-0.018,13.217,0.393
		c4.329,0.411,8.66,1.139,12.991,2.184c3.36,0.822,6.553,1.924,9.576,3.305c3.024,1.383,5.769,3.191,8.232,5.432
		c3.434,3.211,5.86,6.721,7.279,10.527c1.418,3.809,1.849,7.58,1.288,11.312c-0.56,3.734-2.071,7.243-4.536,10.528
		c-2.464,3.286-5.862,6.048-10.191,8.288c-4.256,2.166-8.624,3.771-13.104,4.815c-4.479,1.045-9.071,1.642-13.775,1.792
		c-2.912,0.149-5.824,0.225-8.736,0.225s-5.862-0.188-8.848-0.561c-4.48-0.523-8.831-1.417-13.048-2.688
		c-4.22-1.269-8.232-3.248-12.04-5.937c-3.287-2.389-5.956-5.076-8.009-8.063c-2.054-2.985-3.491-6.234-4.312-9.744h25.872
		c0.82,1.419,2.016,2.764,3.584,4.031c2.389,2.092,5.226,3.735,8.512,4.929c3.285,1.195,6.645,1.887,10.08,2.072
		c3.434,0.187,6.776-0.186,10.024-1.12c3.248-0.933,6.065-2.445,8.456-4.536c0.745-0.672,1.417-1.269,2.016-1.792
		c0.597-0.521,1.101-1.102,1.512-1.736c0.41-0.633,0.729-1.437,0.952-2.408c0.225-0.969,0.373-2.312,0.448-4.031
		c0.073-1.12-0.132-2.184-0.616-3.192c-0.486-1.008-1.139-1.921-1.96-2.744c-0.822-0.82-1.755-1.548-2.8-2.184
		c-1.047-0.634-2.092-1.213-3.136-1.736c-2.391-1.12-4.816-1.921-7.28-2.407c-2.464-0.485-4.892-0.689-7.28-0.617
		c-1.867,0-3.528,0-4.983,0c-1.456,0-2.819,0.096-4.089,0.281c-1.271,0.187-2.482,0.542-3.64,1.063
		c-1.158,0.522-2.408,1.271-3.752,2.239c-0.374,0.449-0.915,0.711-1.624,0.785c-0.711,0.074-1.363,0.111-1.96,0.111
		c-2.391,0-4.592,0-6.608,0c-2.016,0-3.995,0-5.936,0c-1.942,0-3.92,0-5.937,0c-2.016,0-4.219,0-6.607,0h-2.128l25.76-37.072
		l2.912-4.367c0.896-1.344,1.94-2.874,3.136-4.592c1.193-1.717,2.426-3.547,3.696-5.488h76.608
		C676.835,950.873,676.799,950.949,676.799,951.022z"/>
	<path d="M832.702,955.855c-1.643,2.174-4.088,5.469-7.336,9.89s-7.635,10.452-13.16,18.093h24.192
		c-0.15,0.225-0.728,1.115-1.736,2.676c-1.008,1.562-2.259,3.42-3.752,5.574c-1.494,2.156-3.099,4.479-4.815,6.967
		c-1.719,2.49-3.287,4.738-4.704,6.744c-0.375,0.521-0.896,0.969-1.568,1.339c-0.672,0.371-1.307,0.557-1.903,0.557
		c-4.704,0-8.887,0.02-12.544,0.056c-3.66,0.039-7.02,0.02-10.08-0.056l-15.792,22.512c-1.792,2.615-3.268,4.704-4.425,6.272
		c-1.158,1.568-2.11,2.782-2.855,3.64c-0.747,0.857-1.383,1.438-1.904,1.736c-0.523,0.298-1.12,0.448-1.792,0.448h-26.992
		c0.149-0.15,0.634-0.859,1.456-2.128c0.821-1.27,1.885-2.874,3.192-4.816c1.306-1.94,2.78-4.144,4.424-6.608
		c1.642-2.464,3.304-4.945,4.984-7.447c1.68-2.501,3.304-4.928,4.872-7.28c1.567-2.353,2.985-4.461,4.256-6.328
		c-2.688-0.073-5.619-0.073-8.792,0c-3.175,0.075-6.739,0.075-10.696,0c-0.15,0-0.318-0.036-0.504-0.11
		c-0.188-0.073-0.355-0.186-0.504-0.334c-0.15-0.148-0.225-0.354-0.225-0.614c0-0.259,0.149-0.575,0.448-0.948
		c0.821-1.264,1.941-2.898,3.36-4.904c1.269-1.709,2.873-3.939,4.815-6.688c1.941-2.75,4.405-6.17,7.393-10.258h20.944
		c0.896-1.344,1.885-2.873,2.968-4.592c1.081-1.717,2.108-3.248,3.08-4.592h-39.872c-0.375,0-0.729,0-1.064,0
		s-0.616-0.018-0.84-0.056c-0.224-0.037-0.355-0.132-0.392-0.282c-0.039-0.15,0.093-0.374,0.392-0.676
		c0.373-0.524,1.193-1.723,2.464-3.6c1.045-1.574,2.613-3.863,4.704-6.865c2.09-2.999,4.928-7.125,8.512-12.377h75.488
		C835.875,951.623,834.644,953.309,832.702,955.855z M835.055,983.838c0.224,0,0.373-0.036,0.448-0.111
		C835.428,983.802,835.279,983.838,835.055,983.838z M835.95,983.727h-0.224H835.95z"/>
</g>
<g enable-background="new    ">
	<path d="M203,1095.662c9.802,8.882,16.608,18.887,20.414,30.015c3.806,11.132,4.209,23.501,1.211,37.108
		c-1.847,8.537-5.104,15.945-9.774,22.23c-4.671,6.288-10.354,11.621-17.041,16.003c-7.266,4.96-14.878,8.796-22.836,11.504
		c-7.958,2.709-16.148,4.469-24.565,5.277c-3.692,0.346-7.18,0.575-10.467,0.691c-3.287,0.113-7.007,0.173-11.158,0.173
		c-12.11-0.232-23.934-1.673-35.465-4.324c-7.036-1.617-13.841-3.807-20.414-6.574c-6.574-2.769-12.688-6.688-18.338-11.765
		c-9.804-8.88-16.608-18.884-20.414-30.015c-3.806-11.129-4.208-23.556-1.211-37.281c1.844-8.534,5.074-15.916,9.688-22.145
		c4.612-6.229,10.321-11.592,17.127-16.089c7.267-4.845,14.849-8.62,22.75-11.331c7.898-2.709,16.115-4.469,24.652-5.277
		c3.689-0.346,7.322-0.605,10.898-0.778c3.574-0.173,7.15-0.026,10.727,0.433v-0.52c12.109,0.232,23.931,1.674,35.465,4.325
		c7.033,1.616,13.84,3.806,20.414,6.574S197.348,1090.588,203,1095.662z M168.573,1167.283c2.651-3.228,4.611-6.688,5.882-10.38
		c1.268-3.689,1.873-7.409,1.816-11.158c-0.06-3.747-0.778-7.438-2.162-11.072c-1.385-3.633-3.46-7.007-6.229-10.12
		c-3.46-3.92-7.239-7.207-11.331-9.861c-4.096-2.652-8.563-4.555-13.408-5.709c-2.308-0.576-4.7-1.064-7.179-1.471
		c-2.481-0.402-4.874-0.662-7.18-0.778c-6.807,0-13.494,1.211-20.068,3.633c-3.806,1.501-7.382,3.374-10.726,5.622
		c-3.347,2.25-6.345,5.047-8.996,8.391c-2.654,3.348-4.614,6.834-5.882,10.467c-1.271,3.633-1.876,7.296-1.816,10.986
		c0.057,3.691,0.778,7.352,2.162,10.984s3.46,7.007,6.228,10.121c3.46,4.039,7.294,7.123,11.505,9.256
		c4.209,2.135,8.677,3.778,13.407,4.93c2.422,0.579,4.814,1.012,7.18,1.298c2.362,0.289,4.698,0.492,7.007,0.605
		c3.344,0,6.688,0.03,10.034,0.087c3.344,0.059,6.688-0.547,10.033-1.816c3.807-1.498,7.38-3.374,10.727-5.623
		C162.921,1173.425,165.919,1170.63,168.573,1167.283z"/>
	<path d="M346.762,1140.814c2.652,3.46,5.883,7.585,9.688,12.369c3.806,4.787,7.785,9.805,11.937,15.051
		c4.152,5.25,8.331,10.496,12.543,15.744c4.209,5.249,8.044,10.007,11.505,14.271c3.46,4.269,6.341,7.845,8.649,10.727
		c2.306,2.882,3.747,4.611,4.325,5.189c-0.578,0-1.038,0.027-1.384,0.087c-0.347,0.057-0.636,0.087-0.865,0.087
		c-6.92,0-13.84,0-20.76,0s-13.84-0.06-20.761-0.174c-0.578,0-1.184-0.146-1.816-0.432c-0.635-0.29-1.124-0.665-1.47-1.125
		c-1.154-1.384-2.854-3.487-5.104-6.314c-2.249-2.825-4.845-6.082-7.785-9.774c-2.941-3.689-6.114-7.64-9.516-11.851
		c-3.403-4.209-6.747-8.391-10.033-12.543c-3.287-4.151-6.461-8.101-9.516-11.85c-3.057-3.747-5.682-7.007-7.871-9.775v63.838
		h-41.866v-141.342h41.866v39.099c3.114-3.92,6.255-7.842,9.429-11.765c3.17-3.919,6.082-7.553,8.736-10.898
		c2.651-3.344,5.017-6.314,7.093-8.91c2.076-2.595,3.633-4.524,4.671-5.795c0.46-0.459,1.009-0.865,1.644-1.211
		c0.633-0.346,1.238-0.52,1.816-0.52h41.347c0.347,0,0.663,0.03,0.952,0.087c0.286,0.06,0.719,0.087,1.297,0.087
		c-0.462,0.578-1.644,2.019-3.546,4.324c-1.903,2.309-4.298,5.25-7.18,8.823c-2.884,3.576-6.114,7.585-9.688,12.023
		c-3.576,4.441-7.209,8.996-10.898,13.667c-3.692,4.672-7.382,9.314-11.072,13.927c-3.692,4.614-7.036,8.823-10.034,12.629
		c3.344-0.229,6.229-0.2,8.65,0.087C344.167,1138.941,345.838,1139.663,346.762,1140.814z"/>
	<path d="M440.527,1213.475c13.607-20.414,27.131-40.712,40.568-60.896c13.435-20.182,26.958-40.481,40.568-60.896
		c-5.189-5.995-10.553-12.224-16.089-18.685c8.65,0,16.146,0.03,22.49,0.087c6.342,0.06,11.531,0.087,15.57,0.087h11.937
		c0.922,0,1.96,0.26,3.114,0.777c1.151,0.52,2.017,1.185,2.595,1.99c15.338,22.606,30.534,45.096,45.586,67.471
		c15.051,22.376,30.245,44.922,45.585,67.643c0.229,0.346,0.46,0.778,0.692,1.297c0.229,0.52,0.633,1.182,1.211,1.99h-10.034
		c-5.536,0-10.985-0.03-16.349-0.087c-5.363-0.06-10.812,0.027-16.349,0.26c-2.075,0.113-3.778-0.232-5.104-1.038
		c-1.327-0.809-2.451-2.076-3.373-3.807c-1.384-2.422-2.827-4.844-4.325-7.266c-1.5-2.422-3.058-4.784-4.671-7.093
		c-0.578-0.692-1.298-1.324-2.162-1.903c-0.865-0.575-1.76-0.865-2.682-0.865h-87.02c-0.808,0-1.644,0.29-2.508,0.865
		c-0.865,0.579-1.587,1.211-2.163,1.903c-1.846,2.654-3.576,5.336-5.189,8.044c-1.617,2.712-3.347,5.394-5.19,8.045
		c-0.462,0.692-1.067,1.324-1.816,1.903c-0.752,0.575-1.53,0.864-2.336,0.864c-6.92,0.23-13.783,0.316-20.587,0.26
		c-6.807-0.06-13.667-0.086-20.587-0.086c-0.232,0-0.405-0.087-0.519-0.26C441.276,1213.907,440.987,1213.704,440.527,1213.475z
		 M515.609,1165.207h60.55c-5.189-8.304-10.236-16.491-15.138-24.565c-4.903-8.071-9.947-16.319-15.137-24.739
		c-5.19,8.42-10.237,16.668-15.138,24.739C525.843,1148.716,520.799,1156.903,515.609,1165.207z"/>
	<path d="M810.23,1101.284c-6.69,9.056-12.629,17.1-17.819,24.134c-6.114,8.189-11.823,15.916-17.127,23.182
		c-4.844,6.461-9.515,12.715-14.013,18.771c-4.498,6.055-8.65,11.677-12.456,16.867c-2.422,3.347-4.817,6.574-7.18,9.688
		c-2.365,3.113-4.527,5.968-6.487,8.563c-1.963,2.595-3.663,4.787-5.104,6.573c-1.443,1.79-2.395,3.028-2.854,3.72
		c-0.346,0.46-0.838,0.836-1.471,1.125c-0.635,0.286-1.24,0.433-1.816,0.433h-41.347c-0.347,0-0.665,0-0.952,0
		c-0.289,0-0.722-0.06-1.297-0.174c0.346-0.346,1.384-1.644,3.114-3.892c1.729-2.249,3.979-5.161,6.746-8.737
		c2.769-3.573,5.969-7.726,9.602-12.455c3.634-4.729,7.526-9.775,11.678-15.139c4.152-5.362,8.418-10.926,12.802-16.693
		c4.382-5.766,8.764-11.475,13.148-17.127c-0.809-2.998-1.963-7.439-3.46-13.322c-1.271-5.073-3.058-11.906-5.363-20.5
		c-2.309-8.59-5.249-19.691-8.823-33.303h35.292c0.23,0.692,0.633,2.163,1.212,4.412c0.575,2.249,1.297,4.903,2.162,7.958
		c0.865,3.058,1.757,6.374,2.682,9.947c0.922,3.576,1.844,7.036,2.768,10.38c3.46-4.498,6.661-8.65,9.602-12.456
		c2.941-3.806,5.507-7.149,7.698-10.034c2.19-2.881,3.949-5.217,5.277-7.006c1.324-1.787,2.162-2.855,2.508-3.201h42.212
		C823.897,1082.803,816.917,1092.23,810.23,1101.284z"/>
</g>
<g enable-background="new    ">
	<path d="M93.18,1313.198v8.32c0,12.655-0.044,25.22-0.13,37.7c-0.089,12.479-0.045,24.959,0.13,37.439
		c0,10.92,2.52,19.24,7.564,24.961c5.046,5.719,12.96,9.1,23.745,10.139c7.476,0.521,15.044-0.17,22.697-2.08
		c13.914-3.465,20.873-13.604,20.873-30.42c0.171-13,0.216-25.869,0.131-38.609c-0.09-12.74-0.045-25.609,0.13-38.609v-8.841h62.92
		v8.32v77.22c0,9.881-0.955,18.549-2.86,26c-1.909,7.455-4.984,13.91-9.229,19.37c-4.25,5.46-9.75,10.055-16.511,13.78
		c-6.76,3.725-14.909,6.715-24.439,8.97c-17.854,4.331-35.665,6.24-53.431,5.72c-17.769-0.52-35.319-4.42-52.649-11.699
		c-14.04-5.891-24.745-13.91-32.11-24.051c-7.369-10.14-10.7-23.18-10.01-39.13c0.52-12.65,0.69-25.261,0.52-37.829
		c-0.175-12.566-0.26-25.262-0.26-38.091v-8.58H93.18z"/>
	<path d="M434.3,1278.358c3.811,5.029,6.369,10.489,7.67,16.38c1.3,5.895,1.34,11.875,0.13,17.939
		c-1.215,6.24-3.6,11.961-7.15,17.16c-3.555,5.201-7.93,9.449-13.13,12.74c-6.589,3.99-14.475,7.195-23.66,9.62l-1.56,0.261
		c-1.909,0.52-3.729,0.91-5.46,1.17c-1.735,0.26-3.555,0.564-5.46,0.91v35.1h-37.181v-19.5c0-4.16,0.171-8.061,0.521-11.7
		c0.345-3.64,0.95-7.28,1.82-10.92c0.17-0.69,0.475-1.69,0.909-2.99c0.431-1.3,1.04-2.641,1.82-4.03
		c0.78-1.385,1.775-2.641,2.99-3.77c1.211-1.125,2.6-1.95,4.16-2.471c0.865-0.345,1.775-0.604,2.729-0.779
		c0.951-0.171,2.121-0.26,3.51-0.26c11.96-0.521,21.751-3.726,29.381-9.62c6.585-5.546,9.88-11.7,9.88-18.46
		c0-7.28-3.21-13.605-9.62-18.98c-3.814-2.945-8.32-5.285-13.521-7.02c-5.199-1.73-10.66-2.6-16.38-2.6h-3.12
		c-3.469,0.349-6.414,0.998-8.84,1.949c-2.43,0.955-5.289,2.125-8.58,3.51h-0.26c-2.6,1.39-4.77,2.86-6.5,4.42
		c-0.694,0.521-1.26,1.041-1.69,1.561c-0.435,0.52-0.909,1.04-1.43,1.561l-1.3,1.56c-0.694,0.694-1.475,1.04-2.34,1.04h-9.101h-8.84
		c-0.869,0-1.689,0.045-2.47,0.13c-0.78,0.089-1.43,0.13-1.95,0.13h-1.56l-0.78-0.26l-0.78,0.26h-4.16
		c-0.694,0-1.389-0.086-2.08-0.26h-4.42h-2.6c1.04-4.68,2.9-8.795,5.59-12.35c2.686-3.551,5.676-6.631,8.97-9.23
		c3.291-2.6,6.541-4.721,9.75-6.37c3.206-1.646,5.851-2.901,7.931-3.771c2.425-1.039,4.851-1.819,7.279-2.34
		c2.426-0.52,5.025-1.039,7.801-1.56c3.465-0.521,7.061-1.081,10.79-1.69c3.725-0.605,7.58-0.995,11.569-1.17
		c1.386-0.17,2.21-0.26,2.471-0.26c0.26,0,0.995,0,2.21,0c14.56,0,28.34,2.34,41.34,7.02
		C420.52,1264.578,428.75,1270.559,434.3,1278.358z M402.06,1431.238c5.891,1.561,11.7,3.165,17.42,4.811
		c5.72,1.648,11.61,3.339,17.68,5.069c-0.52,0.35-3.38,1.475-8.58,3.38c-5.199,1.91-11.31,4.25-18.33,7.021
		c-7.02,2.774-14.17,5.81-21.449,9.1c-7.28,3.291-13.35,6.5-18.2,9.62c-1.39,0.865-3.685,1.471-6.891,1.82
		c-3.209,0.345-5.504,0.26-6.89-0.26c-3.47-1.39-7.15-2.86-11.05-4.42c-3.9-1.561-7.845-3.295-11.83-5.2
		c2.08-6.24,3.855-11.7,5.33-16.38c1.471-4.681,2.641-8.58,3.51-11.7c1.04-3.64,1.905-6.761,2.601-9.36h56.68V1431.238z"/>
	<path d="M558.579,1436.049c5.72,1.648,11.61,3.339,17.68,5.069c-0.52,0.35-3.38,1.475-8.58,3.38
		c-5.199,1.91-11.31,4.25-18.33,7.021c-7.02,2.774-14.17,5.81-21.449,9.1c-7.28,3.291-13.35,6.5-18.2,9.62
		c-1.39,0.865-3.729,1.471-7.021,1.82c-3.294,0.345-5.635,0.26-7.02-0.26c-3.47-1.39-7.109-2.86-10.92-4.42
		c-3.814-1.561-7.715-3.295-11.7-5.2c2.08-6.24,3.855-11.7,5.33-16.38c1.471-4.681,2.641-8.58,3.51-11.7
		c1.04-3.64,1.905-6.761,2.601-9.36h56.68v6.5C547.05,1432.799,552.86,1434.403,558.579,1436.049z M530.499,1389.639h-37.18v-132.34
		h37.18V1389.639z"/>
	<path d="M795.436,1320.608c-14.39,19.85-26.694,36.79-36.92,50.83c-11.96,16.47-22.534,30.94-31.72,43.42h105.56v50.96H669.076
		h-45.24c-0.35,0-0.78,0-1.3,0c-0.521,0-1.215-0.089-2.08-0.26c0.69-0.695,3.16-3.814,7.409-9.36
		c4.246-5.545,9.661-12.609,16.25-21.19c6.586-8.58,13.996-18.33,22.23-29.25c8.23-10.92,16.811-22.27,25.74-34.06
		c8.925-11.785,17.81-23.57,26.649-35.36c8.841-11.785,17.071-22.79,24.7-33.02h-117.52v-49.92h155.22h62.92
		C826.027,1278.358,809.822,1300.764,795.436,1320.608z"/>
</g>
</svg>
